P3
76
56
255
132
164
187
135
167
190
137
169
192
137
172
194
140
175
197
143
178
200
145
180
202
145
181
203
147
183
205
150
186
208
152
188
210
153
189
211
154
190
212
156
192
214
158
194
216
161
199
222
163
201
224
163
203
228
163
203
228
163
205
229
160
208
230
165
207
231
161
203
225
168
210
232
163
208
227
166
211
230
166
213
229
162
212
235
165
209
234
164
204
230
168
204
230
172
206
233
170
206
232
165
202
228
165
207
232
161
207
231
160
207
233
157
207
232
158
205
233
155
202
230
155
198
230
155
200
229
155
206
233
153
205
229
154
201
227
154
198
225
156
197
225
158
197
226
158
199
227
157
201
228
154
201
227
151
203
227
151
202
229
149
203
229
151
200
230
153
200
230
153
198
229
152
197
226
150
196
220
149
197
219
148
196
218
147
195
217
147
194
214
147
194
214
149
192
211
148
189
209
147
188
208
147
185
204
145
183
202
144
181
200
142
179
198
142
177
197
140
177
195
138
175
193
135
174
189
131
170
185
133
165
186
136
168
191
139
171
192
141
173
196
141
176
196
144
179
201
146
181
201
149
184
206
150
187
206
154
189
211
155
192
211
156
192
214
157
194
213
159
195
217
160
196
218
163
199
221
164
202
225
164
204
229
165
205
230
165
205
230
162
208
231
162
209
229
169
210
232
164
207
226
164
207
226
164
209
228
164
212
232
163
211
233
163
208
231
164
204
229
168
202
229
169
203
228
170
204
231
166
203
229
164
204
229
161
206
229
158
206
229
157
205
228
156
202
228
157
201
228
162
203
233
163
207
234
155
205
230
155
205
228
158
204
228
161
203
228
161
201
227
161
201
227
161
201
227
160
202
227
157
203
227
154
204
227
154
204
229
154
204
229
155
202
230
156
201
230
158
199
229
157
198
226
153
199
222
152
199
219
152
199
219
151
198
218
151
196
217
150
195
214
151
194
213
150
191
211
149
190
210
150
188
207
148
186
205
146
183
202
144
181
200
144
179
199
143
178
197
140
177
193
137
176
191
134
173
188
137
168
188
140
171
192
142
173
193
144
175
196
146
179
198
148
180
201
151
184
203
153
185
206
153
188
207
158
190
211
158
193
212
159
194
214
160
195
214
162
197
217
164
199
219
165
201
223
166
202
224
168
206
229
169
207
230
167
208
230
165
210
231
168
211
230
170
208
229
171
212
230
174
215
233
169
215
231
168
215
233
168
213
234
171
212
234
174
212
235
178
210
235
176
208
231
176
208
233
174
210
234
171
209
232
168
210
232
166
211
232
163
208
229
164
206
230
165
205
230
168
205
231
166
206
231
159
205
228
160
206
229
165
207
229
169
207
230
170
206
230
168
204
228
167
203
227
163
204
226
162
204
226
160
207
227
160
207
227
160
207
227
160
205
228
161
203
227
163
200
226
163
200
226
159
202
221
157
202
221
156
201
220
155
200
219
156
199
218
155
198
215
155
196
214
155
193
212
154
192
211
154
191
210
152
189
208
151
186
205
148
183
202
147
182
201
146
181
200
143
180
196
141
178
194
138
175
191
143
172
190
146
174
195
148
177
195
150
178
199
150
181
199
153
184
204
156
187
205
156
187
207
157
190
207
161
192
212
162
195
212
163
196
215
164
197
214
166
199
218
170
203
222
169
204
223
170
205
224
171
206
226
172
210
231
173
211
232
170
213
230
174
211
230
176
213
232
181
219
238
173
214
232
173
216
233
171
214
233
171
214
233
176
214
235
181
216
238
182
214
237
180
210
234
178
210
233
177
212
234
172
210
231
171
212
232
170
213
232
169
212
231
171
212
232
175
211
233
174
209
231
169
204
226
166
207
227
166
209
228
171
209
228
172
209
228
173
208
228
175
207
228
171
206
226
169
206
225
168
206
225
165
208
225
163
209
225
165
208
225
166
207
227
168
204
226
168
203
225
167
202
222
166
204
223
163
205
221
162
204
220
161
203
219
162
201
218
161
200
217
159
198
215
158
196
215
158
195
213
156
193
212
154
191
209
153
188
207
151
186
205
149
184
203
148
183
202
147
183
199
143
180
196
141
177
193
149
176
193
152
179
198
154
181
198
156
183
202
157
186
202
160
189
207
162
191
207
162
191
209
163
195
210
168
197
215
168
200
215
169
200
218
170
202
217
172
205
222
175
206
224
175
208
225
176
209
226
178
211
230
178
213
233
177
215
234
178
217
234
183
216
235
184
217
236
177
214
232
178
215
233
180
219
236
178
216
235
180
218
237
182
217
237
182
214
235
180
211
232
180
211
232
180
212
233
179
214
234
176
214
233
174
215
233
171
212
230
169
211
227
176
213
231
183
218
237
185
213
234
177
208
228
175
212
230
174
213
230
174
211
229
177
210
229
178
209
229
180
208
229
178
209
229
175
210
229
172
209
227
171
210
227
169
211
225
171
210
225
171
208
224
173
206
223
175
204
222
175
204
222
170
206
222
169
206
222
168
205
221
166
203
219
165
202
218
164
201
217
162
199
215
161
198
216
161
197
213
159
194
213
157
192
211
155
190
209
153
188
207
151
186
205
150
185
204
149
185
201
146
182
196
145
178
193
155
181
196
160
183
199
160
186
201
162
188
203
164
190
205
167
193
208
168
196
210
170
198
212
172
200
214
175
203
217
176
205
219
178
206
220
180
209
223
182
211
225
183
212
226
183
212
228
183
215
230
185
216
234
185
218
235
184
219
238
184
220
236
191
220
238
185
218
237
189
224
243
192
227
246
191
228
246
180
218
237
191
228
247
194
229
249
188
220
243
186
218
241
192
224
247
191
226
248
185
221
243
183
224
244
185
228
247
182
225
242
177
219
235
179
216
234
187
220
237
191
218
237
185
214
232
182
218
234
180
217
233
180
216
232
182
213
231
184
213
231
183
212
230
181
212
230
180
213
230
175
212
230
174
213
228
175
214
229
174
214
226
176
212
226
178
210
225
180
207
224
179
206
223
177
209
224
175
209
221
174
207
222
172
206
218
171
204
219
169
202
217
168
201
216
167
200
215
163
199
215
164
197
214
159
195
211
159
192
209
155
191
207
154
189
208
153
189
205
153
186
201
151
185
197
147
180
195
161
184
198
165
187
201
166
189
203
168
191
205
170
193
207
173
196
210
174
200
213
175
201
214
177
203
216
180
206
219
181
209
221
183
211
223
185
213
225
188
216
228
188
216
228
190
218
232
191
219
233
191
220
236
190
221
239
190
222
237
193
219
234
195
222
239
195
223
244
200
231
251
191
222
243
171
206
226
145
181
203
170
208
229
189
225
247
189
223
248
191
225
252
198
234
255
191
228
254
171
213
237
152
198
221
169
217
239
184
231
251
184
229
248
184
222
241
188
221
240
193
220
239
190
219
237
186
222
238
185
222
238
186
221
240
189
220
240
190
218
239
188
216
237
184
215
235
180
215
234
179
217
236
177
219
235
177
219
235
177
219
233
179
216
232
181
214
231
183
212
228
184
211
228
182
211
225
179
211
222
178
210
223
177
209
220
175
207
220
173
205
218
172
204
217
171
203
216
170
202
217
168
200
215
165
198
213
163
195
210
160
193
208
159
192
209
158
191
206
157
189
202
155
187
198
151
183
196
164
186
199
167
189
202
170
192
205
172
194
207
174
196
209
177
199
212
178
202
214
177
201
213
180
204
216
183
207
219
184
211
222
185
212
223
187
214
225
191
218
229
193
220
231
194
221
232
194
222
234
194
222
234
195
222
239
200
223
237
200
223
237
206
229
245
197
225
246
195
223
244
164
195
216
128
160
183
89
125
147
131
169
192
167
205
228
177
214
240
184
221
250
189
228
255
169
213
242
139
186
214
95
146
173
132
184
208
168
220
242
183
231
253
185
227
249
188
225
244
194
225
246
196
224
245
188
223
242
188
225
243
191
226
245
194
226
247
194
225
246
190
221
242
183
218
240
179
215
237
180
221
241
177
222
241
177
222
241
177
223
239
181
219
238
181
218
236
184
215
235
186
215
231
185
214
228
184
214
225
184
212
224
181
211
222
179
209
220
177
207
218
176
205
219
175
204
218
174
203
217
170
202
215
168
200
215
166
198
213
164
196
211
162
194
209
161
193
206
160
192
203
157
189
200
156
186
197
170
190
201
173
193
204
175
195
206
177
197
208
179
199
210
182
202
213
183
205
216
183
205
216
184
206
217
188
212
222
191
215
225
193
217
227
194
218
228
198
220
231
199
221
234
200
224
236
200
224
236
198
226
238
203
225
238
203
225
238
207
229
242
200
227
244
195
223
244
148
176
197
128
159
180
115
147
170
99
137
160
107
147
172
122
162
188
113
152
181
114
155
187
179
224
255
153
202
235
98
151
183
86
143
173
88
147
177
110
167
194
151
205
231
190
236
255
194
235
255
189
223
248
194
226
249
193
230
249
171
208
227
150
187
206
177
212
234
189
223
248
197
231
255
164
201
227
149
191
216
99
145
169
122
173
194
163
214
235
185
236
255
182
227
248
177
220
239
181
217
239
183
216
235
185
214
228
191
219
230
184
211
222
190
218
229
190
218
230
175
203
215
179
207
219
186
214
226
175
203
215
179
209
220
174
203
217
172
201
215
174
203
217
170
199
213
162
191
205
164
194
205
161
191
201
160
188
199
173
191
203
175
195
206
178
198
209
179
199
210
182
202
213
185
205
216
187
207
218
184
206
217
188
210
221
190
212
223
192
216
226
194
218
228
199
222
230
200
222
233
202
224
235
202
226
236
201
228
239
205
227
238
205
227
238
206
228
239
203
229
244
211
238
255
161
189
210
126
157
178
134
164
188
118
150
175
94
130
154
116
153
179
148
188
214
133
174
204
105
150
183
99
147
183
98
152
188
90
148
185
81
144
179
79
144
176
76
139
170
88
145
174
130
181
208
185
229
254
208
244
255
196
230
255
184
221
240
169
207
226
117
153
175
108
144
168
134
170
196
179
216
243
165
206
234
126
171
200
115
166
193
82
136
162
84
140
163
130
184
208
171
221
246
188
234
255
190
232
255
190
226
248
187
216
232
196
223
234
188
214
227
184
210
223
198
226
238
189
217
229
193
221
233
183
211
223
195
223
235
183
211
223
173
203
214
181
211
222
179
209
220
176
205
219
175
203
215
170
198
209
168
197
205
166
193
204
174
192
204
177
195
207
180
198
210
181
201
212
183
203
214
186
206
217
188
208
219
190
210
221
190
212
223
192
214
225
194
216
227
198
220
231
203
223
232
203
226
234
204
227
235
206
230
240
207
231
243
209
232
240
209
232
240
207
230
244
206
232
247
213
240
255
129
157
179
117
147
171
141
171
197
113
145
170
117
151
176
135
171
197
142
179
206
118
159
189
122
166
201
99
149
186
92
148
185
63
125
162
91
159
196
85
155
189
82
148
182
83
146
177
116
169
200
168
213
242
170
207
234
122
158
182
109
146
165
129
166
185
105
140
162
106
142
166
116
151
179
132
171
200
136
179
211
117
166
196
99
154
184
88
145
174
80
140
168
78
138
164
92
148
175
131
182
209
168
215
241
184
224
249
191
222
240
199
227
239
192
220
234
184
212
226
198
226
240
187
215
229
196
224
236
189
217
229
187
215
227
186
214
226
185
213
224
179
207
218
173
201
212
170
198
210
172
199
210
175
202
211
173
200
207
172
196
206
174
192
204
177
195
207
180
198
210
180
200
211
183
203
214
186
206
217
188
208
219
191
211
222
192
214
225
194
216
227
196
218
229
199
221
232
205
225
234
204
227
235
206
228
239
207
231
243
210
233
241
211
234
242
213
237
249
212
238
251
204
232
246
206
235
253
113
144
165
112
144
169
139
170
198
119
150
178
130
162
185
161
193
216
147
181
208
128
165
194
129
174
207
102
152
189
99
157
195
84
149
187
76
145
184
71
144
179
84
154
188
83
148
180
75
130
161
95
142
172
114
153
182
100
136
160
99
134
154
115
150
169
105
137
158
126
161
183
141
177
203
135
174
203
135
178
210
113
162
194
131
186
217
81
142
171
62
126
154
79
143
171
80
139
169
73
128
158
97
148
177
135
179
204
182
215
234
197
226
242
194
221
238
204
231
248
198
225
242
182
210
224
181
209
223
188
216
228
178
206
218
188
216
228
190
218
229
182
210
221
187
214
225
188
215
226
182
209
218
180
205
212
178
203
210
176
201
208
176
194
206
178
198
209
180
200
211
182
202
213
185
205
216
188
208
219
190
210
221
191
213
224
194
216
227
196
218
229
198
222
232
203
223
232
205
225
234
205
227
238
205
229
241
204
231
240
207
232
239
205
232
239
201
228
239
211
239
251
188
217
233
185
216
236
111
143
166
105
139
166
127
160
191
130
161
189
156
183
204
168
195
216
138
166
190
148
182
210
140
181
213
101
149
185
84
142
179
99
164
202
109
178
217
84
157
192
84
154
188
89
154
186
83
138
168
93
140
168
103
142
171
90
124
149
39
70
88
75
104
120
103
132
150
127
158
179
137
169
194
133
168
196
132
176
205
100
149
181
111
166
197
94
155
186
80
143
174
73
137
165
77
136
166
89
146
175
85
138
169
70
116
142
123
158
180
155
186
206
152
181
199
187
216
234
188
217
235
205
234
250
196
225
241
198
227
241
201
229
241
193
221
233
184
211
222
179
206
217
181
208
217
182
206
216
177
202
209
176
199
207
174
197
203
172
195
201
179
197
209
181
201
212
184
204
215
186
206
217
188
208
219
191
211
222
193
213
224
193
215
226
195
217
228
197
221
231
199
223
233
204
224
233
203
226
234
204
228
238
201
228
237
201
228
237
202
229
236
201
230
238
200
228
239
187
217
228
141
173
188
148
181
200
117
151
176
110
145
173
119
154
186
124
155
183
177
199
220
170
191
208
123
148
170
137
167
193
149
186
215
138
184
217
90
146
181
73
137
173
105
175
211
85
158
193
80
151
183
85
150
180
92
147
177
101
146
175
88
125
152
55
87
110
30
58
72
45
71
84
112
138
153
146
173
192
133
161
183
109
143
170
114
155
183
104
151
181
107
162
193
78
139
170
73
136
167
85
149
177
77
138
167
65
122
151
79
132
163
108
153
182
110
146
170
128
159
180
98
129
150
117
148
168
144
172
193
197
226
244
195
224
240
179
208
222
183
211
225
179
207
219
187
214
225
199
226
235
195
219
229
177
202
209
184
209
216
185
208
214
182
205
211
177
200
206
180
200
211
183
203
214
185
205
216
187
207
218
189
209
220
190
212
223
192
214
225
193
215
226
196
220
230
199
223
233
204
224
233
203
226
234
205
229
239
201
231
241
202
231
239
203
232
238
203
232
238
203
232
240
206
234
245
167
196
210
124
155
173
139
171
192
125
159
186
111
146
174
131
167
199
139
170
198
169
188
205
175
191
204
155
174
191
130
155
177
135
169
196
141
185
214
103
156
188
80
140
174
77
145
180
91
161
195
99
168
199
92
156
184
85
139
167
94
138
165
113
149
175
126
154
175
131
155
167
75
95
104
124
146
159
154
177
193
143
170
191
129
161
184
126
166
192
116
161
190
101
154
185
94
153
183
84
145
174
65
129
157
63
124
153
89
146
175
114
167
198
120
167
195
154
191
217
132
164
187
85
117
140
80
112
133
119
150
170
144
175
193
149
178
194
129
158
172
134
162
176
144
172
184
162
189
200
179
206
215
192
216
226
190
213
221
186
209
215
185
205
212
175
195
202
171
191
198
178
198
207
182
200
210
184
204
213
186
206
217
188
208
219
191
211
222
192
214
225
194
218
228
198
222
232
204
224
233
205
225
234
206
228
239
207
235
246
206
236
246
206
236
244
207
237
245
205
238
245
205
238
247
202
234
245
166
200
212
152
185
202
162
197
217
125
160
182
98
134
160
154
189
217
184
216
239
185
204
219
165
181
194
160
179
196
124
151
172
133
168
196
122
167
198
97
151
187
88
152
188
73
143
179
71
144
179
72
143
175
82
147
177
98
152
180
103
147
172
111
147
171
130
155
175
84
98
107
48
59
65
129
143
154
143
161
175
126
149
167
140
168
190
140
176
200
112
154
179
95
141
167
102
152
177
114
164
189
108
158
181
93
139
163
100
144
169
131
171
196
155
189
214
154
182
206
108
134
157
87
113
136
97
123
146
154
179
201
131
156
178
140
165
185
131
157
174
138
161
177
133
155
168
113
133
144
105
123
133
143
160
167
185
200
205
114
128
131
139
154
159
132
147
152
126
141
146
180
199
206
185
202
210
186
205
212
188
206
216
188
208
217
191
211
220
194
216
227
198
222
234
201
223
236
210
224
233
206
229
235
210
232
243
200
229
237
203
238
244
203
237
246
202
239
248
200
238
247
197
235
246
177
215
228
140
178
191
163
200
216
163
199
215
109
144
163
105
140
159
149
182
201
180
212
227
166
190
202
147
171
183
143
170
189
126
160
185
108
151
183
101
153
190
90
153
194
87
158
202
86
163
207
65
144
185
62
138
174
82
151
184
100
157
186
103
151
174
108
144
168
124
145
162
92
92
102
77
72
78
132
135
144
138
148
160
150
167
185
131
156
176
132
163
184
130
162
183
106
139
158
110
141
159
105
132
149
118
141
157
149
168
185
149
165
181
141
154
171
156
167
185
123
131
152
97
108
128
88
99
121
79
91
115
94
108
134
86
102
127
94
110
135
94
109
132
91
103
125
99
111
127
91
97
111
90
93
102
112
111
116
118
114
113
105
97
95
94
95
99
81
82
86
67
68
72
185
202
209
188
205
213
190
207
215
192
209
217
193
212
219
197
217
226
200
222
233
203
225
238
209
227
239
210
230
239
213
232
246
219
239
250
210
239
247
204
234
244
200
232
243
199
233
245
193
229
243
188
224
240
124
161
179
132
167
186
154
189
208
140
173
192
114
145
165
128
159
177
153
182
200
166
193
210
150
178
190
140
168
182
142
173
194
125
162
189
102
146
181
93
146
186
89
152
195
98
169
213
79
156
198
74
152
191
82
155
190
98
163
193
101
155
181
100
142
164
112
145
164
141
157
172
121
114
121
95
80
83
162
157
164
174
178
189
163
176
192
136
157
174
131
157
174
107
133
150
127
148
165
111
129
143
95
107
119
115
122
132
153
155
167
153
151
162
124
120
134
108
106
119
71
70
86
44
47
66
33
38
58
36
42
64
42
52
77
30
42
68
29
43
69
34
48
74
73
84
106
83
90
109
75
78
93
73
72
80
95
89
91
112
101
99
116
101
96
118
105
99
91
85
87
82
78
79
189
204
211
192
207
214
193
210
217
195
212
219
198
215
222
203
221
231
205
225
234
205
227
238
208
231
245
208
230
243
209
231
244
216
230
241
215
231
244
218
236
250
220
239
255
208
229
248
180
202
225
152
176
200
121
147
172
144
170
195
151
177
204
124
150
177
121
145
173
145
166
193
152
173
200
159
183
207
133
162
180
132
163
183
140
174
199
128
165
194
111
154
189
102
152
189
89
147
187
91
155
193
108
173
211
90
156
190
81
142
171
87
139
163
95
136
156
104
136
151
129
151
164
163
170
178
142
130
132
97
81
81
164
155
160
184
183
191
160
168
179
143
156
172
145
162
178
113
131
145
114
128
141
102
112
122
98
102
111
113
114
119
130
127
134
128
121
128
109
102
110
94
88
98
46
46
58
32
35
50
19
24
43
24
32
51
22
34
56
24
40
63
22
40
62
27
45
67
31
48
68
41
54
71
39
49
61
40
44
53
64
62
65
89
84
81
111
100
96
126
115
111
104
96
94
102
96
96
190
205
212
194
209
216
196
211
218
197
214
221
202
217
224
204
221
228
209
226
233
209
233
245
219
239
250
218
238
249
220
232
246
225
234
251
225
236
254
219
232
251
207
222
243
186
202
227
158
175
201
135
155
182
158
179
210
150
171
202
142
162
195
123
143
176
122
142
175
141
160
193
153
172
205
169
192
223
122
152
176
141
176
198
155
189
216
129
166
195
112
151
184
109
153
188
97
145
181
96
149
183
110
163
194
102
153
180
102
148
171
113
152
169
122
150
162
128
146
156
145
154
161
170
168
171
147
132
129
85
67
63
117
105
107
121
116
122
98
101
110
90
96
108
99
107
120
85
91
105
101
105
116
102
102
110
112
110
115
119
113
115
113
102
106
108
98
99
111
100
104
109
103
107
80
78
89
93
95
108
88
94
108
89
98
115
66
82
98
64
83
100
33
56
74
13
39
56
15
38
54
21
40
54
23
37
48
27
36
43
46
50
53
73
71
72
100
92
90
115
105
103
98
88
87
104
94
93
193
208
213
196
211
216
200
215
220
202
217
222
210
223
229
214
227
233
217
232
237
221
236
243
217
234
241
221
240
247
230
243
255
227
240
255
210
225
246
178
194
217
152
168
193
145
162
190
154
173
203
164
185
216
166
186
221
131
154
188
129
151
188
126
148
185
121
143
180
143
163
200
163
183
220
172
196
230
126
158
183
161
197
221
174
208
235
133
167
195
111
146
174
119
154
184
117
154
183
125
162
189
102
140
163
107
144
163
118
150
163
122
144
155
116
129
135
120
123
128
150
146
147
186
175
173
169
150
144
104
85
78
104
90
89
101
92
95
95
90
97
93
91
102
99
97
108
110
107
118
113
106
114
112
101
107
120
105
108
124
108
108
117
101
101
112
97
94
108
94
93
100
90
91
105
100
107
96
96
106
68
72
83
52
62
74
22
38
51
23
45
58
14
42
54
19
49
60
24
52
64
18
45
56
16
36
45
18
33
40
30
38
41
55
56
58
78
74
75
89
80
81
83
71
71
92
78
77
196
211
216
202
217
222
204
217
223
210
224
227
215
229
232
222
233
235
232
239
247
231
242
248
225
245
246
219
239
246
204
227
245
177
201
225
141
165
191
117
143
168
121
147
174
140
167
196
159
186
216
164
193
225
138
167
199
117
146
180
129
158
192
130
159
193
128
154
189
149
175
210
159
185
220
151
177
210
136
168
193
164
196
219
170
200
224
143
171
195
144
170
195
151
177
200
128
155
176
119
144
164
116
142
157
114
136
149
110
129
136
106
117
121
103
104
106
118
109
110
157
141
141
195
176
172
158
138
131
96
77
70
92
77
74
99
87
89
105
95
103
105
98
106
104
94
105
121
110
118
111
96
103
119
100
102
125
105
106
128
107
104
124
105
101
114
95
91
99
84
79
90
79
77
91
82
87
77
74
83
74
74
84
79
88
97
57
71
80
29
52
60
18
45
56
31
61
71
39
68
76
25
52
61
22
42
49
26
41
48
36
43
49
62
63
68
84
82
85
93
84
87
94
80
80
104
86
84
198
215
222
201
218
225
209
222
228
214
228
231
221
232
234
235
236
241
241
244
251
235
246
250
215
235
236
198
227
233
147
185
204
110
154
181
81
125
152
87
131
158
122
166
193
147
191
218
138
182
211
118
159
187
110
151
179
111
150
179
123
160
189
122
159
188
131
166
194
141
175
203
131
165
193
131
163
188
143
171
192
156
182
199
158
179
198
149
167
187
163
178
197
156
169
186
118
131
147
112
124
136
126
139
148
125
136
142
127
135
137
132
134
133
137
129
127
144
128
128
164
143
142
184
160
158
171
151
144
96
77
70
97
82
79
114
102
102
106
93
100
106
95
103
99
86
96
102
85
93
101
80
87
124
99
102
131
105
106
127
103
99
124
103
98
109
90
84
94
79
72
99
85
82
107
95
99
96
86
94
88
85
92
73
76
83
55
66
72
28
47
53
30
53
61
39
66
73
45
72
79
35
60
65
40
59
66
50
63
71
60
65
71
83
82
88
106
101
108
112
101
107
106
88
88
116
95
92
196
215
222
203
220
228
209
224
231
215
229
232
236
239
246
236
240
251
233
241
252
217
229
241
161
184
192
152
190
203
106
158
182
87
146
176
81
138
167
95
152
181
123
178
208
133
187
215
112
163
190
86
133
159
96
142
166
103
148
171
105
146
168
109
147
168
132
168
190
127
162
182
109
141
162
135
164
182
145
167
181
158
174
187
161
173
185
149
157
170
142
146
158
119
121
133
103
106
115
136
139
144
127
128
132
133
134
136
138
138
138
135
130
127
125
114
112
130
112
110
160
136
136
190
164
163
171
151
144
80
63
55
91
77
74
121
109
109
100
87
94
111
98
107
116
100
110
107
87
96
111
88
94
130
104
107
125
99
98
119
94
90
125
104
99
111
94
87
92
79
73
100
86
83
90
74
77
101
86
93
100
91
96
60
58
63
50
55
59
45
56
60
54
72
76
45
64
70
32
51
57
25
42
49
39
52
58
54
61
69
58
58
66
74
69
76
92
82
91
93
78
83
92
70
72
106
81
77
189
213
225
198
218
227
206
225
232
228
240
252
228
244
255
212
229
247
162
184
205
138
165
186
126
158
179
108
158
181
85
148
179
77
146
179
91
157
189
120
183
214
121
182
211
89
146
173
79
131
155
101
149
171
106
151
172
100
141
159
99
136
152
91
124
139
120
150
161
124
152
164
121
148
159
139
159
168
132
141
148
93
96
101
81
80
85
102
97
103
101
94
101
117
108
113
108
99
102
108
102
104
101
97
96
109
105
104
115
109
109
95
87
85
92
78
78
90
72
72
175
150
153
197
173
173
184
165
159
85
70
63
87
73
72
102
90
92
91
78
87
104
91
101
103
87
98
102
82
93
98
75
83
103
78
82
97
73
73
128
104
102
128
109
105
136
121
118
117
106
104
90
78
78
99
80
84
103
84
90
83
68
73
89
80
85
91
89
94
49
50
54
60
68
70
55
65
67
52
62
64
63
71
74
69
72
77
67
66
72
89
82
89
116
103
112
128
111
121
123
102
107
94
68
69
104
75
71
156
183
200
208
232
244
209
235
252
177
205
227
147
179
204
113
148
178
91
130
161
93
136
170
88
137
170
96
151
182
77
141
176
103
167
202
112
175
208
103
162
192
101
157
184
103
153
178
99
144
167
99
137
156
75
108
125
38
67
81
25
49
61
36
56
65
118
135
143
147
162
167
140
153
159
133
141
144
167
166
164
129
121
119
77
66
64
93
79
78
95
79
80
101
85
86
108
94
94
106
94
94
99
91
89
100
95
92
104
99
96
81
71
70
91
77
77
92
73
75
164
139
143
205
180
183
177
158
152
79
64
57
79
65
64
106
94
96
59
48
56
56
44
54
42
29
39
50
33
43
65
46
52
57
37
39
64
42
44
126
106
105
138
122
122
127
116
114
109
99
98
101
91
92
91
72
76
98
77
82
90
71
77
101
86
91
97
86
90
69
63
65
87
83
84
103
101
102
108
106
107
128
124
125
106
100
102
79
68
72
120
103
109
124
103
110
107
84
92
106
79
84
106
76
74
127
96
91
143
174
194
167
208
230
145
190
221
120
168
204
93
145
184
79
134
175
68
127
171
78
139
184
70
134
180
72
135
178
107
161
199
109
157
193
101
147
180
97
141
170
103
140
167
104
136
159
109
136
157
125
146
163
83
99
114
50
60
70
49
53
62
51
52
57
135
133
138
153
148
152
156
150
152
150
140
139
182
167
162
155
136
129
86
67
61
111
90
85
126
105
102
123
103
102
132
116
116
122
110
110
122
114
112
115
109
109
111
105
105
89
80
81
111
99
101
111
95
98
168
145
151
205
180
183
185
166
160
80
63
56
67
53
52
104
92
94
39
28
34
32
22
30
20
8
18
30
17
26
56
39
45
83
64
66
99
79
80
123
105
105
107
93
93
91
81
82
88
79
82
91
82
85
88
72
75
108
87
92
97
76
81
78
59
63
88
72
73
113
99
99
123
109
108
117
103
102
105
89
89
87
71
71
111
93
93
113
91
93
95
70
73
100
74
77
125
96
100
106
76
78
105
72
67
138
105
98
124
164
189
110
147
173
76
132
169
74
137
180
61
128
173
73
141
188
64
134
183
73
143
192
78
146
195
95
154
196
124
164
200
101
132
161
87
117
145
111
137
162
131
151
175
121
136
155
125
134
151
152
156
168
101
99
110
63
58
65
66
57
62
68
56
60
163
147
150
171
152
154
165
147
147
148
129
125
179
156
148
155
131
121
94
69
62
117
92
87
138
114
112
132
112
111
127
111
112
123
111
113
93
87
87
98
94
95
96
92
91
88
82
82
103
91
93
105
86
88
177
155
158
184
160
160
186
163
157
80
60
53
72
54
52
103
89
89
54
43
47
47
38
43
39
29
37
25
14
20
68
56
58
98
82
83
99
83
83
100
84
84
100
86
86
95
85
86
81
75
79
60
51
56
86
71
76
106
90
93
113
94
98
70
51
53
94
74
75
121
101
100
128
104
102
106
82
80
93
68
64
99
71
68
116
86
84
156
126
124
147
116
114
128
97
95
104
73
71
110
76
74
138
103
97
171
137
128
69
114
143
75
121
154
80
129
161
79
150
194
59
132
177
62
135
180
60
131
177
70
138
183
80
133
175
100
143
178
115
139
165
124
137
156
123
134
152
135
142
160
154
157
172
158
156
169
152
146
156
154
144
152
108
93
100
75
59
62
85
65
67
81
59
61
160
135
138
154
129
132
150
126
126
139
113
112
211
186
179
169
142
135
113
85
81
108
83
79
116
95
94
119
100
102
97
85
89
110
101
106
99
97
100
93
93
95
78
76
77
91
85
85
110
98
98
118
100
98
202
176
175
155
127
123
192
163
155
118
91
80
130
110
103
141
123
119
114
102
102
94
85
86
88
79
82
38
29
30
52
42
41
82
71
69
84
70
69
70
56
55
57
45
45
45
35
36
66
57
62
84
75
80
82
73
78
75
64
68
102
87
90
83
64
66
119
98
97
99
73
72
109
79
77
109
75
73
135
100
96
156
119
113
152
115
109
177
140
134
119
84
78
111
76
70
86
53
46
109
76
69
98
64
55
119
82
73
85
139
177
86
140
178
70
126
163
65
136
178
55
128
169
67
136
177
70
135
173
72
126
160
88
121
152
121
145
169
140
149
164
158
158
168
154
153
161
145
140
147
146
139
146
151
140
144
153
138
141
155
139
140
122
102
103
98
77
76
104
80
80
90
66
66
139
115
115
127
103
103
129
104
107
136
110
109
231
206
201
175
150
145
122
97
93
110
86
86
109
89
91
115
100
105
92
81
89
103
98
105
65
64
70
80
81
85
86
86
86
100
94
94
105
91
88
109
88
83
208
181
174
180
147
138
206
172
160
172
140
127
195
168
159
178
158
151
161
147
144
140
130
128
140
132
130
76
71
67
52
42
40
80
71
66
85
72
66
86
72
69
122
108
107
130
118
120
130
119
125
112
103
108
48
43
47
76
70
74
124
113
117
104
88
89
104
83
82
69
41
38
129
96
91
181
142
137
162
121
115
172
129
122
166
123
114
172
132
122
90
52
41
123
87
75
131
97
87
133
101
90
151
114
105
155
118
109
78
137
179
81
140
182
69
131
172
69
135
169
78
143
175
68
129
158
94
140
163
103
140
159
119
146
163
169
171
183
165
163
166
158
153
150
145
137
135
139
129
127
140
129
125
137
124
118
145
128
121
162
145
138
115
96
90
80
61
55
69
50
46
70
50
49
126
106
105
131
113
113
123
104
106
126
106
107
219
195
193
162
138
134
104
80
80
107
85
88
103
86
94
105
93
103
96
88
99
87
85
96
86
89
96
75
79
82
84
84
84
109
104
101
169
154
149
182
159
151
223
190
181
206
168
157
204
165
150
197
160
144
207
175
164
184
160
150
172
155
148
161
150
144
152
145
139
89
85
76
76
67
60
88
79
70
54
41
33
10
0
0
27
13
10
41
27
27
62
47
52
54
45
50
31
31
33
40
40
42
44
38
40
68
56
56
105
84
81
111
82
78
145
110
104
159
119
111
180
136
127
210
163
153
179
135
122
182
140
126
188
149
134
191
155
139
149
116
99
158
126
111
158
122
110
156
120
108
47
109
150
48
110
151
79
128
169
78
129
156
83
131
154
99
136
154
127
155
169
152
170
182
148
143
150
159
148
152
148
137
135
142
129
123
131
116
111
135
120
113
155
138
131
163
144
138
159
140
133
160
141
134
93
74
68
81
62
58
81
61
60
79
61
59
108
90
90
107
91
92
108
92
95
133
115
115
231
207
203
174
149
144
93
69
67
105
83
85
101
82
86
99
84
91
109
98
106
85
78
85
84
79
85
116
111
115
168
162
162
152
143
138
163
146
139
130
108
97
147
119
107
210
176
164
205
163
149
209
169
157
207
173
163
198
171
162
189
169
162
184
169
162
148
137
131
77
68
61
74
64
55
60
50
41
36
23
15
37
24
18
79
63
63
58
42
43
49
34
39
43
31
35
37
28
29
71
63
61
88
77
75
166
148
146
170
145
141
153
120
115
182
143
136
225
182
173
221
174
164
224
178
165
230
184
171
213
170
154
170
128
112
125
88
70
129
94
75
162
126
110
166
130
118
164
128
116
46
104
141
53
115
152
60
115
156
83
114
135
105
128
146
140
150
162
154
158
169
148
143
150
149
139
147
136
121
126
126
106
107
140
116
116
152
128
128
159
135
135
161
137
137
158
134
134
148
124
124
137
116
115
78
56
58
82
62
63
80
60
62
63
43
45
103
83
85
103
84
88
106
87
91
136
116
115
235
211
201
167
139
127
107
78
70
108
81
74
165
140
135
141
117
115
138
117
116
109
89
88
122
104
102
131
113
111
117
99
97
129
111
107
158
141
133
98
80
70
83
63
52
85
61
49
139
102
94
209
170
163
199
165
156
200
170
162
203
178
173
116
95
90
48
30
26
52
37
32
75
60
57
61
47
44
52
38
37
75
61
61
119
104
107
83
68
73
67
52
57
71
52
56
54
30
28
114
85
81
172
141
136
164
131
124
157
122
116
153
114
107
176
136
128
184
141
132
162
118
107
178
134
123
199
155
144
202
158
145
178
134
121
154
110
97
161
119
105
187
145
133
159
119
111
149
111
102
54
117
150
69
129
163
86
142
179
113
129
145
127
130
139
139
136
143
144
134
142
131
120
126
132
115
121
139
120
124
146
121
124
148
122
123
151
125
126
156
132
132
157
132
135
149
124
127
136
114
116
132
110
112
85
65
67
70
50
52
67
47
49
72
53
55
118
97
102
108
89
91
104
85
89
141
120
119
228
200
189
169
140
126
115
85
74
103
73
63
191
162
154
189
162
155
153
125
121
54
29
25
108
83
79
121
97
93
60
39
34
94
73
68
147
128
122
92
75
67
82
65
57
81
61
54
44
15
11
123
92
89
166
137
133
179
151
147
167
142
138
110
89
84
69
50
46
67
49
47
78
63
60
124
108
108
137
121
121
124
108
109
141
125
126
127
111
112
123
104
108
112
88
88
149
116
111
168
129
122
179
139
131
167
127
119
166
126
118
163
123
115
159
116
107
143
100
91
165
121
110
166
122
111
171
127
116
179
135
124
183
137
124
177
131
118
169
123
110
161
117
106
150
107
100
144
103
97
69
113
152
71
125
159
73
119
152
94
135
165
136
133
140
132
123
128
124
112
116
124
109
112
142
126
127
149
130
132
146
126
127
137
117
118
127
107
108
132
112
113
137
117
118
126
108
108
122
104
104
131
113
113
80
62
62
78
60
60
83
65
65
75
59
59
91
72
74
78
62
62
97
81
82
162
141
138
227
198
190
159
127
116
102
72
62
94
64
56
187
158
152
200
172
168
171
146
142
81
57
55
98
74
72
69
48
45
64
43
40
109
88
85
135
114
111
114
93
88
54
33
28
44
23
18
67
46
45
90
69
68
116
96
95
106
88
86
88
73
70
87
72
69
74
60
57
63
49
46
130
115
112
121
106
101
108
90
86
124
105
101
158
139
135
151
130
127
162
138
134
177
149
145
172
135
129
174
134
126
163
123
115
157
117
109
156
113
106
167
124
117
167
124
115
166
123
114
166
122
111
170
126
115
173
126
116
169
122
112
169
123
110
172
126
113
168
122
109
158
114
103
152
109
102
146
105
99
68
113
152
67
112
143
74
111
138
95
125
149
121
112
115
117
105
105
121
105
105
136
118
118
150
130
131
148
128
129
142
126
126
120
104
104
94
78
78
87
71
71
86
72
71
72
58
57
74
60
59
100
86
85
69
55
54
70
55
52
66
50
50
57
42
39
84
69
66
109
94
91
130
115
112
172
153
149
232
202
194
165
132
123
109
79
71
111
82
76
168
140
136
186
161
157
156
135
132
96
75
74
86
66
65
106
86
85
168
148
147
163
142
141
72
51
50
107
83
81
112
88
86
80
59
58
51
37
37
38
28
29
52
42
43
42
32
33
45
35
34
69
59
57
61
50
46
52
41
37
68
53
48
70
53
46
62
43
36
84
61
53
119
94
87
135
108
99
156
127
119
172
139
130
188
150
141
187
147
139
168
128
120
164
124
116
149
106
99
161
118
111
165
122
113
178
135
126
170
126
115
174
130
119
171
124
114
158
111
101
148
102
89
149
103
90
156
110
97
158
114
103
152
111
105
140
99
93
71
112
144
81
115
143
102
127
147
128
122
124
121
107
106
135
117
115
149
130
126
153
132
129
140
119
116
125
104
103
127
116
114
103
93
92
68
58
57
58
48
47
61
51
49
50
40
38
63
52
48
106
95
91
58
47
43
64
51
45
62
48
45
59
46
40
85
70
65
122
107
102
141
126
121
172
153
147
228
197
192
172
139
134
106
75
70
98
70
66
115
90
86
159
138
135
134
116
114
91
75
75
92
76
76
69
53
53
56
38
38
158
138
139
136
114
116
166
142
142
199
170
172
88
66
69
68
59
64
56
54
59
56
54
57
35
33
36
34
30
31
38
33
30
34
24
22
63
52
46
93
78
71
98
80
70
95
73
62
125
98
87
156
127
113
176
143
128
191
155
141
196
158
145
180
140
130
174
131
124
157
114
107
170
127
120
171
128
119
187
144
135
178
134
125
176
132
123
168
124
115
152
108
99
140
93
83
139
92
82
143
96
86
144
97
87
141
94
84
138
94
85
144
103
97
133
92
86
70
118
154
99
121
145
116
110
110
122
107
104
145
127
123
151
130
127
151
130
125
142
118
114
127
103
101
121
103
101
114
104
103
92
87
84
58
50
48
49
41
39
61
53
50
55
45
43
68
59
54
115
104
98
48
37
31
57
44
38
63
48
41
67
52
45
78
61
54
115
98
90
145
128
120
191
171
164
235
206
202
167
136
133
108
79
75
92
67
63
61
40
37
73
58
55
61
47
46
63
53
52
66
56
55
38
26
26
25
10
13
162
143
145
196
176
178
202
177
180
186
157
162
100
77
83
83
76
83
68
69
74
45
44
49
28
26
29
36
32
33
35
30
27
50
40
38
104
91
85
144
127
119
140
120
109
135
108
97
168
139
125
186
150
136
190
153
137
190
148
132
185
143
129
170
127
118
162
119
112
153
110
103
160
117
110
163
120
111
164
121
112
142
98
89
124
80
71
145
101
92
133
89
80
129
82
72
139
92
82
148
101
91
147
100
90
140
93
83
134
90
81
146
103
96
147
106
100
78
106
128
100
100
102
113
109
108
134
121
115
138
119
113
131
110
105
117
96
91
106
85
80
109
88
85
119
98
97
114
104
103
95
89
89
57
52
49
49
41
39
64
56
53
53
43
41
51
40
36
88
75
69
49
34
29
58
41
34
67
48
41
88
70
60
119
99
90
179
159
150
197
175
164
215
190
183
161
132
128
95
65
63
90
65
61
101
80
77
82
67
64
59
49
47
59
51
49
80
76
75
76
72
71
85
79
79
99
90
93
115
103
105
123
104
108
185
163
166
161
134
141
88
67
72
71
62
67
52
50
53
30
25
29
42
36
38
61
52
53
57
46
44
67
52
49
88
69
63
127
104
96
178
151
140
195
163
152
196
160
148
172
132
120
182
140
126
179
133
118
154
108
95
135
91
80
136
92
83
140
96
87
136
92
83
146
102
93
146
102
93
142
98
89
130
86
77
129
85
76
140
96
87
151
104
96
154
107
99
152
105
95
150
103
93
150
103
93
148
104
95
155
112
105
163
120
114
61
95
120
86
78
76
113
103
101
152
141
137
136
119
112
117
98
94
110
91
87
100
81
77
105
85
84
120
100
101
107
97
96
96
88
86
65
57
55
66
56
54
95
84
82
89
75
72
80
65
60
109
92
85
54
35
29
108
88
81
148
125
117
160
136
126
169
145
135
226
199
188
229
201
190
224
195
187
183
155
151
107
82
78
102
81
78
82
64
60
88
77
75
72
67
63
70
69
67
56
56
54
34
34
34
20
20
20
27
23
24
57
48
51
40
25
28
94
75
79
131
108
114
67
46
51
42
30
32
37
27
28
37
25
25
85
71
71
120
104
104
140
120
119
173
152
147
179
154
149
182
153
147
173
140
131
160
123
114
187
147
137
173
131
119
168
124
113
169
123
110
172
125
115
174
127
117
161
117
108
152
108
99
129
85
76
141
97
88
141
97
88
144
100
91
129
85
76
137
93
84
155
111
102
166
119
111
158
111
103
153
106
96
158
111
101
160
113
103
152
108
99
148
105
98
154
111
105
72
96
108
133
123
122
147
136
134
141
130
126
126
108
104
123
105
103
104
86
84
113
95
95
116
97
99
118
104
104
103
91
91
100
88
88
73
59
59
80
66
65
88
72
72
78
60
58
74
55
51
124
103
98
108
83
78
129
102
95
144
115
107
169
139
129
166
133
124
167
135
124
179
145
135
223
190
181
161
133
129
102
81
76
95
76
72
79
66
60
76
68
65
67
64
59
61
61
59
35
37
34
32
34
33
20
22
21
27
27
27
27
23
24
44
34
35
55
40
43
42
26
29
61
41
43
81
61
60
130
109
106
80
56
52
160
135
131
184
156
153
170
141
137
189
158
155
196
163
158
180
145
139
171
134
128
172
131
125
182
139
133
179
134
128
163
118
112
162
117
111
176
129
121
162
115
107
143
96
86
141
94
84
150
103
93
148
101
93
143
96
88
146
99
91
151
104
96
164
117
109
171
124
116
165
118
110
152
105
97
149
102
94
149
102
94
150
106
97
159
115
106
147
104
97
130
87
81
78
92
103
108
93
100
132
121
119
125
111
110
116
102
99
117
101
101
115
99
99
120
104
105
117
101
104
116
101
104
104
88
89
103
87
87
83
65
65
85
67
65
73
52
51
109
88
85
75
50
46
138
110
106
147
118
112
166
136
128
143
109
100
166
132
122
182
144
135
167
129
118
179
139
129
223
189
179
176
149
142
100
81
75
93
76
69
74
61
55
61
54
48
51
48
43
43
44
39
26
28
25
17
19
16
23
25
22
30
30
30
29
28
26
41
32
33
55
45
44
91
79
81
157
139
139
221
193
189
194
164
156
178
145
138
175
142
135
190
155
149
197
160
154
177
138
133
187
146
142
185
144
140
179
138
134
176
132
129
175
131
128
177
132
129
179
134
131
180
135
132
181
136
131
168
121
113
150
103
93
143
96
86
148
101
91
155
108
100
164
117
109
168
121
113
161
114
106
161
114
106
153
106
98
150
103
95
158
111
103
157
110
102
138
91
83
131
87
78
147
102
96
127
84
78
125
82
76
48
51
58
92
91
89
114
104
103
101
89
89
111
97
96
123
109
109
128
114
114
110
95
98
110
95
98
93
77
78
123
105
105
111
91
90
110
89
88
95
74
73
96
70
69
154
129
125
94
64
62
142
111
108
177
144
139
182
147
141
150
111
104
154
116
107
172
129
122
164
121
112
174
130
121
253
215
206
183
156
147
92
73
66
91
74
66
76
61
54
50
39
33
40
33
27
27
22
18
20
16
13
12
11
7
40
39
35
37
36
34
59
55
52
121
116
113
165
157
154
176
166
165
177
159
155
161
128
121
144
104
96
220
180
172
194
154
146
188
145
138
183
138
132
168
123
118
183
138
133
176
131
128
180
135
132
175
129
129
166
120
120
171
127
126
186
142
141
187
143
142
176
132
129
183
136
128
175
127
117
170
122
112
165
117
107
164
116
106
173
125
115
171
122
115
156
107
100
149
102
94
162
115
107
159
112
104
150
103
95
152
107
101
153
108
102
139
94
88
126
81
75
131
86
81
136
91
86
48
41
48
80
75
72
108
98
99
101
89
89
94
80
80
118
102
103
126
110
111
113
97
98
113
97
98
84
66
66
105
85
84
113
92
89
191
167
165
197
171
170
181
153
150
146
118
114
99
68
65
170
137
132
172
137
131
145
108
100
140
100
92
150
110
102
179
135
126
193
149
140
177
130
120
246
206
196
196
168
157
93
70
62
84
64
55
69
50
43
36
19
12
33
18
13
28
14
11
36
25
23
61
51
49
95
87
84
77
69
66
87
79
76
141
133
130
176
169
163
187
180
174
176
161
154
184
150
141
140
97
88
178
135
126
177
133
124
177
133
124
178
131
123
197
148
143
179
130
125
167
119
115
175
127
125
172
124
122
160
115
112
164
120
119
178
134
133
176
135
133
166
122
119
159
112
104
168
120
110
183
135
125
188
140
130
183
135
125
185
137
127
188
139
132
181
132
125
178
131
123
163
116
108
153
106
98
162
115
107
163
118
112
142
97
91
124
79
73
129
84
78
139
94
89
136
91
86
77
62
67
104
92
94
117
102
97
102
88
88
71
55
56
90
72
72
106
88
88
92
72
71
47
27
26
49
29
28
92
71
68
80
56
52
136
111
107
176
151
147
163
135
131
91
63
59
80
49
44
165
132
125
185
150
144
179
142
134
181
141
133
178
138
130
141
97
88
138
94
85
179
132
124
252
209
200
179
147
136
88
60
49
74
47
38
71
44
37
56
28
24
79
54
50
101
75
74
128
104
104
156
135
134
146
128
126
100
85
82
91
77
74
84
73
69
56
47
40
70
63
55
102
88
79
150
120
110
97
57
49
96
56
48
113
70
63
101
56
50
121
76
70
169
122
116
165
118
112
171
122
117
172
124
120
168
120
116
158
113
108
156
113
107
163
120
114
166
125
119
167
124
117
185
137
127
187
137
126
200
150
139
206
156
145
192
142
133
179
129
120
174
126
116
170
122
112
172
125
117
190
143
135
171
124
118
131
84
78
131
86
80
151
106
100
136
91
85
103
58
52
135
90
85
138
93
88
137
118
124
134
118
121
119
109
108
119
103
104
86
70
71
75
55
54
145
124
121
156
132
128
111
87
83
140
116
112
133
109
105
104
81
75
62
39
33
80
55
50
81
56
51
95
68
61
99
70
62
126
96
88
182
148
139
167
130
122
114
76
67
135
95
87
115
72
63
112
69
60
168
124
115
170
127
118
167
131
119
118
86
75
109
75
66
129
94
88
130
95
91
158
123
121
180
144
144
201
167
168
197
165
166
157
129
128
109
85
83
94
75
71
72
57
52
36
26
17
39
32
22
66
53
44
136
107
99
84
47
39
101
64
56
136
97
90
146
105
99
191
148
142
184
139
133
177
130
124
174
127
121
169
122
114
161
114
106
154
107
99
150
106
97
154
111
102
164
121
112
173
131
119
186
138
126
176
126
115
180
130
119
192
142
131
194
144
135
193
143
134
191
143
133
186
138
128
173
126
118
166
119
111
147
100
94
137
90
84
138
93
87
136
91
85
129
84
78
129
84
78
143
98
93
148
103
98
128
107
114
113
97
100
114
100
99
111
93
93
83
65
65
83
59
55
142
117
112
146
119
112
106
79
72
134
107
100
35
12
4
47
27
18
35
15
6
56
33
25
82
57
50
135
108
99
150
121
113
147
117
109
123
90
81
145
111
102
135
98
89
161
123
114
154
116
105
156
116
106
175
132
123
168
128
118
182
144
133
178
140
129
163
123
115
189
146
140
187
143
140
192
146
146
194
148
150
190
145
148
178
138
139
136
100
100
117
86
84
101
76
72
79
60
54
75
62
53
93
85
74
124
111
102
116
91
86
117
86
83
161
128
123
162
127
123
143
106
100
169
128
124
158
115
109
173
128
122
170
126
117
169
122
112
162
116
103
156
110
97
157
114
98
165
123
107
173
131
115
178
135
119
199
149
138
189
137
126
181
131
120
178
128
117
176
126
117
180
130
121
179
131
121
168
120
110
150
103
95
163
116
108
153
106
100
133
86
80
134
89
83
146
101
95
141
96
91
131
86
81
128
83
78
138
93
88
103
84
90
101
86
83
119
101
99
119
99
98
101
82
78
109
84
79
139
111
107
135
106
100
119
90
82
114
84
76
102
75
66
70
43
34
85
58
51
112
85
76
153
124
116
132
102
92
121
88
81
113
80
71
142
108
99
161
124
115
182
144
135
155
117
108
148
108
98
173
133
123
143
100
91
177
135
123
169
127
115
187
145
133
161
117
108
185
140
134
189
141
137
191
143
141
192
146
146
182
136
138
178
136
137
100
61
62
91
57
56
100
70
68
79
56
50
54
35
28
41
24
14
61
43
33
109
82
75
134
101
96
157
124
119
155
120
116
161
124
118
180
139
135
179
136
130
168
125
118
166
122
113
170
126
115
171
125
112
168
122
109
176
130
115
187
144
128
189
146
129
183
137
122
176
128
116
181
131
120
181
131
122
168
120
110
161
111
102
172
124
114
180
131
124
169
120
113
159
112
104
155
108
100
149
102
96
151
104
98
147
102
96
130
85
79
121
76
71
131
86
81
134
89
84
126
81
76
99
86
78
123
102
97
118
94
90
122
98
94
121
98
92
125
100
95
141
113
109
104
75
71
98
67
62
84
51
46
117
80
74
135
98
90
157
118
113
157
118
111
132
93
86
112
72
64
125
84
78
152
112
104
183
140
133
171
128
119
150
106
97
150
106
97
170
123
115
172
125
117
169
122
112
183
136
126
193
147
134
176
130
117
198
154
141
177
133
122
192
149
142
198
157
151
179
140
135
176
138
135
138
103
101
143
109
107
130
99
96
85
54
51
77
48
44
56
28
24
49
21
17
71
42
36
128
91
83
153
113
105
175
135
127
181
141
133
180
137
130
173
130
123
161
116
110
148
104
95
155
108
100
151
104
96
161
113
103
183
135
125
195
147
137
191
143
133
186
138
128
188
140
130
183
135
125
176
128
118
173
124
117
176
129
121
176
127
120
168
121
113
167
120
114
170
123
117
163
116
110
151
104
98
151
104
98
168
121
115
138
90
86
134
86
82
135
87
83
145
100
95
136
92
89
114
70
67
104
91
83
135
110
105
134
106
102
119
94
89
119
91
87
85
57
53
91
62
58
74
43
40
120
86
84
152
117
113
154
113
109
155
112
106
147
102
97
131
86
81
124
79
73
136
91
85
160
115
109
178
133
127
172
125
117
183
136
128
186
139
131
189
142
134
190
141
134
174
125
118
168
120
110
183
135
125
178
130
118
181
135
122
194
150
137
182
140
128
169
129
121
176
137
130
165
128
122
175
140
134
163
129
127
158
127
124
147
116
113
71
40
37
81
50
47
76
45
42
121
87
85
161
126
120
177
134
127
166
119
111
168
124
115
194
150
141
205
161
152
187
143
134
162
118
109
152
108
99
153
106
98
162
115
107
182
133
126
199
150
143
202
153
146
191
142
135
184
134
127
182
133
126
178
129
122
169
122
114
156
109
101
147
100
92
149
102
96
159
112
106
167
120
114
170
123
117
163
116
110
161
114
108
155
108
102
161
114
108
142
94
90
147
99
95
142
94
90
143
95
91
140
96
93
133
90
84
117
102
95
130
113
105
129
102
95
117
90
83
101
74
67
83
54
48
118
87
82
137
106
101
173
140
135
177
139
136
156
115
111
166
123
117
165
120
115
157
112
107
160
115
109
169
124
118
160
115
109
141
96
90
183
136
128
182
135
127
175
128
120
173
126
118
177
128
121
173
124
117
174
126
116
188
140
130
182
136
123
183
139
126
176
132
121
189
146
137
181
141
133
195
156
149
178
141
135
174
139
133
168
134
132
166
132
130
140
106
104
75
41
39
113
80
75
155
122
117
175
140
136
168
131
125
177
134
127
187
143
134
186
142
133
180
136
127
194
147
139
209
162
154
191
144
136
155
108
100
184
137
129
194
147
139
209
160
153
215
166
159
210
161
154
196
147
140
182
132
125
172
123
116
172
123
116
171
124
116
164
117
109
155
108
100
156
109
103
162
115
109
158
111
105
147
100
94
136
89
83
150
103
97
144
97
91
144
97
91
149
102
96
166
119
113
160
113
107
155
108
102
143
98
92
131
86
80
140
121
114
135
115
106
124
100
90
122
93
87
137
108
100
146
115
110
164
131
124
144
111
106
140
105
99
149
110
105
138
97
91
153
110
104
162
117
112
162
117
112
169
124
118
176
131
125
167
122
116
148
103
97
170
123
115
165
118
110
161
114
106
167
120
112
176
127
120
178
129
122
177
129
119
178
131
121
185
141
130
181
139
127
165
122
113
179
139
131
182
143
136
184
147
139
166
131
125
147
112
108
176
143
138
139
105
103
116
82
80
152
117
113
171
136
132
180
143
137
154
117
111
179
140
133
193
150
143
194
150
141
197
153
144
199
155
146
196
149
141
190
143
135
191
144
136
196
149
141
215
168
160
216
169
161
214
165
158
210
161
154
205
156
149
198
149
142
185
135
128
172
122
115
164
115
108
164
117
109
166
119
111
168
121
113
169
122
116
161
114
108
144
97
91
127
80
74
140
93
87
156
109
103
148
101
95
139
92
86
148
101
95
154
107
101
141
94
88
135
88
82
143
96
90
141
94
88
143
121
110
132
108
96
117
89
78
147
114
105
152
122
112
137
104
97
143
109
100
135
98
92
129
92
84
111
70
64
126
83
77
145
102
96
168
123
118
175
130
125
168
123
117
155
110
104
146
101
95
142
97
91
163
116
108
162
115
107
165
118
110
169
122
114
170
121
114
174
125
118
182
134
124
187
140
130
181
138
129
184
144
136
185
145
137
172
133
126
162
123
116
137
100
94
141
106
102
137
102
98
148
113
109
161
126
122
167
132
128
174
137
131
158
121
115
176
137
130
176
137
130
208
168
160
221
178
169
211
167
158
207
160
152
206
159
151
199
152
144
191
144
136
195
146
139
207
158
151
209
160
153
208
159
152
203
153
146
193
143
136
187
137
130
186
136
129
184
134
127
181
131
124
183
134
129
169
120
115
162
113
108
167
118
113
170
121
116
162
113
108
155
106
99
156
107
100
124
75
68
138
89
82
141
92
85
143
94
87
159
110
103
157
108
101
153
104
97
158
109
102
158
109
102
161
112
105
157
129
118
161
131
120
162
130
119
152
119
110
137
104
95
134
100
91
135
98
90
128
89
82
142
101
95
163
120
114
174
131
125
169
126
120
164
119
114
152
107
102
134
89
83
125
80
74
142
97
91
167
122
116
175
128
120
161
114
106
158
111
103
162
115
107
166
117
110
173
124
117
176
128
118
168
121
113
165
122
115
166
127
120
183
144
137
160
123
115
151
114
108
129
92
86
143
108
104
156
121
117
166
131
127
140
105
101
161
124
118
159
120
113
173
134
127
158
118
110
186
146
138
225
182
173
212
168
159
197
153
144
180
133
125
175
128
120
189
142
134
202
155
147
197
148
141
181
132
125
192
143
136
196
146
139
195
145
138
185
135
128
171
121
114
166
116
109
173
123
116
182
132
125
196
147
142
174
125
120
161
112
107
165
116
111
165
116
111
156
107
102
157
108
101
167
118
111
154
105
98
155
106
99
161
112
105
158
109
102
163
114
107
147
98
91
148
99
92
155
106
99
168
118
111
168
118
109
140
107
98
152
118
106
157
120
111
149
115
105
132
95
86
118
81
72
123
85
76
138
98
90
158
115
108
164
121
114
153
110
104
148
105
99
151
106
101
156
111
106
155
110
104
151
106
100
156
111
105
167
122
116
168
121
113
156
109
101
162
115
107
178
131
123
184
135
128
180
131
124
157
109
99
121
74
66
147
106
100
141
102
97
162
123
118
157
120
114
157
119
116
156
121
117
146
111
107
157
122
118
161
123
120
142
104
101
159
120
115
131
92
85
171
131
123
182
139
130
194
151
142
172
128
119
183
139
130
138
94
85
129
82
74
167
120
112
189
140
133
174
125
118
170
120
113
189
139
132
192
142
135
185
135
128
180
130
123
175
125
118
167
117
110
160
110
103
163
114
107
174
125
118
176
127
122
165
116
111
159
110
105
162
113
108
159
110
103
147
98
91
141
92
85
143
94
87
156
107
100
148
99
92
161
112
105
160
111
104
167
119
109
161
113
103
177
129
119
181
131
122
178
125
117
170
118
107
151
117
107
160
120
112
144
104
96
132
98
88
130
93
84
153
115
106
167
129
120
170
127
120
155
112
105
154
109
103
156
113
107
141
98
92
131
86
81
138
93
88
152
107
101
160
115
109
161
116
110
160
115
109
179
132
124
172
125
117
181
134
126
186
139
131
175
126
119
168
119
112
158
110
100
134
87
79
163
122
116
158
119
114
180
143
137
188
151
145
175
140
136
183
148
144
144
109
105
154
119
115
159
121
118
147
110
104
169
130
125
168
130
121
173
130
123
165
122
113
166
122
111
168
124
113
138
94
85
127
83
74
136
89
81
159
112
104
169
120
113
162
113
106
170
120
113
190
140
133
195
142
136
172
119
113
155
105
98
159
109
102
167
117
110
167
117
110
166
117
110
169
120
113
167
118
113
168
119
114
170
121
116
171
122
117
169
120
113
162
113
106
154
105
98
148
99
92
169
120
113
155
106
99
166
117
110
158
109
102
162
114
104
163
115
105
185
137
127
179
129
120
173
121
110
162
108
98
